# xmcd CD database file
#
# Track frame offsets:
#	150
#	21120
#	43216
#	64075
#	84565
#	108881
#	133437
#	154003
#	174193
#
# Disc length: 2517 seconds
#
# Revision: 0
# Processed by: cddbd v1.4PL0 Copyright (c) Steve Scherf et al.
# Submitted via: CDex 1.50
#
DISCID=7109d309
DTITLE=Smooth Jazz - Sax At Midnight
DYEAR=2003
DGENRE=Jazz
TTITLE0=It Might Be You - Walter Beasley
TTITLE1=Little Things - Street Wize
TTITLE2=In The Mood - Kim Waters
TTITLE3=Devotion - Mark Johnson
TTITLE4=True Or False - Chuck Loeb with Kirk Whalum
TTITLE5=The Kiss - Fantasy Band Featuring Marion Meadows
TTITLE6=Blue Ridge Sunset - Fattburger
TTITLE7=Always - Nelson Rangell
TTITLE8=I Miss You - Alfonzo Blackwell
EXTD=YEAR: 2003
EXTT0=
EXTT1=
EXTT2=
EXTT3=
EXTT4=
EXTT5=
EXTT6=
EXTT7=
EXTT8=
PLAYORDER=
